<mxfile host="app.diagrams.net" modified="2023-10-20T11:58:00.536Z" agent="Mozilla/5.0 (Windows NT 10.0; Win64; x64) AppleWebKit/537.36 (KHTML, like Gecko) Chrome/118.0.0.0 Safari/537.36" etag="igKAfyyU9bZ2hnOHEV0U" version="22.0.5" type="device">
  <diagram name="PÃ¡gina-1" id="ufiYIo5-88wgFmjDgRed">
    <mxGraphModel dx="880" dy="470" grid="1" gridSize="10" guides="1" tooltips="1" connect="1" arrows="1" fold="1" page="1" pageScale="1" pageWidth="827" pageHeight="1169" math="0" shadow="0">
      <root>
        <mxCell id="0" />
        <mxCell id="1" parent="0" />
        <mxCell id="q0Z4zwptnMeddwgNKQ22-1" value="" style="rounded=0;whiteSpace=wrap;html=1;" vertex="1" parent="1">
          <mxGeometry x="280" y="30" width="540" height="400" as="geometry" />
        </mxCell>
        <mxCell id="q0Z4zwptnMeddwgNKQ22-2" value="" style="rounded=0;whiteSpace=wrap;html=1;" vertex="1" parent="1">
          <mxGeometry x="280" y="30" width="540" height="60" as="geometry" />
        </mxCell>
        <mxCell id="q0Z4zwptnMeddwgNKQ22-3" value="" style="rounded=1;whiteSpace=wrap;html=1;" vertex="1" parent="1">
          <mxGeometry x="290" y="45" width="90" height="30" as="geometry" />
        </mxCell>
        <mxCell id="q0Z4zwptnMeddwgNKQ22-6" value="logo" style="text;html=1;strokeColor=none;fillColor=none;align=center;verticalAlign=middle;whiteSpace=wrap;rounded=0;" vertex="1" parent="1">
          <mxGeometry x="305" y="45" width="60" height="30" as="geometry" />
        </mxCell>
        <mxCell id="q0Z4zwptnMeddwgNKQ22-7" value="sobre" style="text;html=1;strokeColor=none;fillColor=none;align=center;verticalAlign=middle;whiteSpace=wrap;rounded=0;" vertex="1" parent="1">
          <mxGeometry x="570" y="45" width="60" height="30" as="geometry" />
        </mxCell>
        <mxCell id="q0Z4zwptnMeddwgNKQ22-8" value="projetos" style="text;html=1;strokeColor=none;fillColor=none;align=center;verticalAlign=middle;whiteSpace=wrap;rounded=0;" vertex="1" parent="1">
          <mxGeometry x="650" y="45" width="60" height="30" as="geometry" />
        </mxCell>
        <mxCell id="q0Z4zwptnMeddwgNKQ22-9" value="contato" style="text;html=1;strokeColor=none;fillColor=none;align=center;verticalAlign=middle;whiteSpace=wrap;rounded=0;" vertex="1" parent="1">
          <mxGeometry x="730" y="45" width="60" height="30" as="geometry" />
        </mxCell>
        <mxCell id="q0Z4zwptnMeddwgNKQ22-10" value="&lt;h1&gt;Heading&lt;/h1&gt;&lt;p&gt;Lorem ipsum dolor sit amet, consectetur adipisicing elit, sed do eiusmod tempor incididunt ut labore et dolore magna aliqua.&lt;/p&gt;" style="text;html=1;strokeColor=none;fillColor=none;spacing=5;spacingTop=-20;whiteSpace=wrap;overflow=hidden;rounded=0;" vertex="1" parent="1">
          <mxGeometry x="310" y="110" width="190" height="130" as="geometry" />
        </mxCell>
        <mxCell id="q0Z4zwptnMeddwgNKQ22-11" style="edgeStyle=orthogonalEdgeStyle;rounded=0;orthogonalLoop=1;jettySize=auto;html=1;exitX=0.5;exitY=1;exitDx=0;exitDy=0;" edge="1" parent="1" source="q0Z4zwptnMeddwgNKQ22-10" target="q0Z4zwptnMeddwgNKQ22-10">
          <mxGeometry relative="1" as="geometry" />
        </mxCell>
        <mxCell id="q0Z4zwptnMeddwgNKQ22-12" value="" style="whiteSpace=wrap;html=1;aspect=fixed;" vertex="1" parent="1">
          <mxGeometry x="310" y="240" width="140" height="140" as="geometry" />
        </mxCell>
        <mxCell id="q0Z4zwptnMeddwgNKQ22-14" value="&lt;font style=&quot;font-size: 15px;&quot;&gt;&lt;b&gt;Alguns projetos&lt;/b&gt;&lt;/font&gt;" style="text;html=1;strokeColor=none;fillColor=none;align=center;verticalAlign=middle;whiteSpace=wrap;rounded=0;" vertex="1" parent="1">
          <mxGeometry x="630" y="110" width="120" height="30" as="geometry" />
        </mxCell>
        <mxCell id="q0Z4zwptnMeddwgNKQ22-15" value="&lt;font style=&quot;font-size: 17px;&quot;&gt;imagem&lt;/font&gt;" style="text;html=1;strokeColor=none;fillColor=none;align=center;verticalAlign=middle;whiteSpace=wrap;rounded=0;" vertex="1" parent="1">
          <mxGeometry x="350" y="295" width="60" height="30" as="geometry" />
        </mxCell>
        <mxCell id="q0Z4zwptnMeddwgNKQ22-18" value="" style="whiteSpace=wrap;html=1;aspect=fixed;" vertex="1" parent="1">
          <mxGeometry x="600" y="260" width="70" height="70" as="geometry" />
        </mxCell>
        <mxCell id="q0Z4zwptnMeddwgNKQ22-20" value="" style="whiteSpace=wrap;html=1;aspect=fixed;" vertex="1" parent="1">
          <mxGeometry x="710" y="260" width="70" height="70" as="geometry" />
        </mxCell>
        <mxCell id="q0Z4zwptnMeddwgNKQ22-21" value="" style="whiteSpace=wrap;html=1;aspect=fixed;" vertex="1" parent="1">
          <mxGeometry x="710" y="160" width="70" height="70" as="geometry" />
        </mxCell>
        <mxCell id="q0Z4zwptnMeddwgNKQ22-22" value="" style="whiteSpace=wrap;html=1;aspect=fixed;" vertex="1" parent="1">
          <mxGeometry x="600" y="160" width="70" height="70" as="geometry" />
        </mxCell>
        <mxCell id="q0Z4zwptnMeddwgNKQ22-23" value="img" style="text;html=1;strokeColor=none;fillColor=none;align=center;verticalAlign=middle;whiteSpace=wrap;rounded=0;" vertex="1" parent="1">
          <mxGeometry x="605" y="180" width="60" height="30" as="geometry" />
        </mxCell>
        <mxCell id="q0Z4zwptnMeddwgNKQ22-24" value="img" style="text;html=1;strokeColor=none;fillColor=none;align=center;verticalAlign=middle;whiteSpace=wrap;rounded=0;" vertex="1" parent="1">
          <mxGeometry x="715" y="180" width="60" height="30" as="geometry" />
        </mxCell>
        <mxCell id="q0Z4zwptnMeddwgNKQ22-25" value="img" style="text;html=1;strokeColor=none;fillColor=none;align=center;verticalAlign=middle;whiteSpace=wrap;rounded=0;" vertex="1" parent="1">
          <mxGeometry x="715" y="280" width="60" height="30" as="geometry" />
        </mxCell>
        <mxCell id="q0Z4zwptnMeddwgNKQ22-26" value="img" style="text;html=1;strokeColor=none;fillColor=none;align=center;verticalAlign=middle;whiteSpace=wrap;rounded=0;" vertex="1" parent="1">
          <mxGeometry x="605" y="280" width="60" height="30" as="geometry" />
        </mxCell>
        <mxCell id="q0Z4zwptnMeddwgNKQ22-27" value="" style="rounded=0;whiteSpace=wrap;html=1;rotation=90;" vertex="1" parent="1">
          <mxGeometry x="-30" y="120" width="357.5" height="197.5" as="geometry" />
        </mxCell>
        <mxCell id="q0Z4zwptnMeddwgNKQ22-28" value="" style="rounded=0;whiteSpace=wrap;html=1;" vertex="1" parent="1">
          <mxGeometry x="50.620000000000005" y="40" width="196.25" height="40" as="geometry" />
        </mxCell>
        <mxCell id="q0Z4zwptnMeddwgNKQ22-29" value="" style="rounded=0;whiteSpace=wrap;html=1;" vertex="1" parent="1">
          <mxGeometry x="59.99000000000001" y="50" width="70" height="20" as="geometry" />
        </mxCell>
        <mxCell id="q0Z4zwptnMeddwgNKQ22-30" value="logo" style="text;html=1;strokeColor=none;fillColor=none;align=center;verticalAlign=middle;whiteSpace=wrap;rounded=0;" vertex="1" parent="1">
          <mxGeometry x="59.99000000000001" y="45" width="60" height="30" as="geometry" />
        </mxCell>
        <mxCell id="q0Z4zwptnMeddwgNKQ22-36" value="" style="line;strokeWidth=1;fillColor=none;align=left;verticalAlign=middle;spacingTop=-1;spacingLeft=3;spacingRight=3;rotatable=0;labelPosition=right;points=[];portConstraint=eastwest;strokeColor=inherit;" vertex="1" parent="1">
          <mxGeometry x="209.99" y="50" width="20" height="8" as="geometry" />
        </mxCell>
        <mxCell id="q0Z4zwptnMeddwgNKQ22-37" value="" style="line;strokeWidth=1;fillColor=none;align=left;verticalAlign=middle;spacingTop=-1;spacingLeft=3;spacingRight=3;rotatable=0;labelPosition=right;points=[];portConstraint=eastwest;strokeColor=inherit;" vertex="1" parent="1">
          <mxGeometry x="209.99" y="56" width="20" height="8" as="geometry" />
        </mxCell>
        <mxCell id="q0Z4zwptnMeddwgNKQ22-39" value="" style="line;strokeWidth=1;fillColor=none;align=left;verticalAlign=middle;spacingTop=-1;spacingLeft=3;spacingRight=3;rotatable=0;labelPosition=right;points=[];portConstraint=eastwest;strokeColor=inherit;" vertex="1" parent="1">
          <mxGeometry x="209.99" y="64" width="20" height="8" as="geometry" />
        </mxCell>
        <mxCell id="q0Z4zwptnMeddwgNKQ22-40" value="&lt;h1 style=&quot;font-size: 10px;&quot;&gt;&lt;font style=&quot;font-size: 10px;&quot;&gt;Heading&lt;/font&gt;&lt;/h1&gt;&lt;p style=&quot;font-size: 10px;&quot;&gt;&lt;font style=&quot;font-size: 10px;&quot;&gt;Lorem ipsum dolor sit amet, consectetur adipisicing elit, sed do eiusmod tempor incididunt ut labore et dolore magna aliqua.&lt;/font&gt;&lt;/p&gt;" style="text;html=1;strokeColor=none;fillColor=none;spacing=5;spacingTop=-20;whiteSpace=wrap;overflow=hidden;rounded=0;" vertex="1" parent="1">
          <mxGeometry x="145.62" y="100" width="99.37" height="90" as="geometry" />
        </mxCell>
        <mxCell id="q0Z4zwptnMeddwgNKQ22-41" value="" style="whiteSpace=wrap;html=1;aspect=fixed;" vertex="1" parent="1">
          <mxGeometry x="59.99000000000001" y="105" width="80" height="80" as="geometry" />
        </mxCell>
        <mxCell id="q0Z4zwptnMeddwgNKQ22-42" value="img" style="text;html=1;strokeColor=none;fillColor=none;align=center;verticalAlign=middle;whiteSpace=wrap;rounded=0;" vertex="1" parent="1">
          <mxGeometry x="69.99000000000001" y="130" width="60" height="30" as="geometry" />
        </mxCell>
        <mxCell id="q0Z4zwptnMeddwgNKQ22-43" value="alguns projetos" style="text;html=1;strokeColor=none;fillColor=none;align=center;verticalAlign=middle;whiteSpace=wrap;rounded=0;" vertex="1" parent="1">
          <mxGeometry x="98.25" y="203.75" width="101" height="30" as="geometry" />
        </mxCell>
        <mxCell id="q0Z4zwptnMeddwgNKQ22-44" value="" style="whiteSpace=wrap;html=1;aspect=fixed;" vertex="1" parent="1">
          <mxGeometry x="74.99000000000001" y="250" width="50" height="50" as="geometry" />
        </mxCell>
        <mxCell id="q0Z4zwptnMeddwgNKQ22-45" value="" style="whiteSpace=wrap;html=1;aspect=fixed;" vertex="1" parent="1">
          <mxGeometry x="159.99" y="330" width="50" height="50" as="geometry" />
        </mxCell>
        <mxCell id="q0Z4zwptnMeddwgNKQ22-46" value="" style="whiteSpace=wrap;html=1;aspect=fixed;" vertex="1" parent="1">
          <mxGeometry x="74.99000000000001" y="330" width="50" height="50" as="geometry" />
        </mxCell>
        <mxCell id="q0Z4zwptnMeddwgNKQ22-47" value="" style="whiteSpace=wrap;html=1;aspect=fixed;" vertex="1" parent="1">
          <mxGeometry x="159.99" y="250" width="50" height="50" as="geometry" />
        </mxCell>
      </root>
    </mxGraphModel>
  </diagram>
</mxfile>
